<svg xmlns="http://www.w3.org/2000/svg" xmlns:xlink="http://www.w3.org/1999/xlink" xmlns:ev="http://www.w3.org/2001/xml-events" version="1.1" width="1338.236328125" height="883" viewBox="-20 -20 1338.236328125 883"><text style="font-family: Verdana; font-size: 12px; font-weight: normal; fill: #000000; line-height: 15px;" transform="translate(829, 20)"><tspan x="0" y="0">1. Wie nennt man eine schrittweise, eindeutige Lösung für ein</tspan><tspan x="0" y="15">Problem?</tspan><tspan x="0" y="30">2. Welches Element speichert veränderliche Werte in der</tspan><tspan x="0" y="45">Programmierung?</tspan><tspan x="0" y="60">3. Wie nennt man eine Programmstruktur, die Wiederholungen</tspan><tspan x="0" y="75">ermöglicht?</tspan><tspan x="0" y="90">4. Wie nennt man jemanden, der Software entwickelt?</tspan><tspan x="0" y="105">5. Wie heißt die Software, die die grundlegenden Funktionen</tspan><tspan x="0" y="120">eines Computers steuert?</tspan><tspan x="0" y="135">6. Wie nennt man das weltweite Netzwerk, das Computer</tspan><tspan x="0" y="150">miteinander verbindet?</tspan><tspan x="0" y="165">7. Wie heißt die Gesamtheit der Programme und</tspan><tspan x="0" y="180">Betriebssysteme, die auf einem Computer laufen?</tspan><tspan x="0" y="195">8. Wie nennt man die Klassifikation von Werten, z.B. ganze</tspan><tspan x="0" y="210">Zahlen oder Zeichenfolgen?</tspan><tspan x="0" y="225">9. Was bezeichnet man als das Bekanntmachen einer Variablen</tspan><tspan x="0" y="240">im Programm?</tspan><tspan x="0" y="255">10. Wie heißt die kleinste Informationseinheit in der Informatik?</tspan><tspan x="0" y="270">11. Wie heißt der Datentyp, der nur zwei Werte, wahr oder</tspan><tspan x="0" y="285">falsch, annehmen kann?</tspan><tspan x="0" y="300">12. Was ist die visuelle Programmierumgebung, in der man durch</tspan><tspan x="0" y="315">Drag&amp;Drop von Code-Blöcken Programme erstellt?</tspan><tspan x="0" y="330">13. Wie heißt das Computerspiel, das über Blockly gesteuert wird</tspan><tspan x="0" y="345">und in dem verschiedene Level durchlaufen werden?</tspan><tspan x="0" y="360">14. Wie nennt man eine Regel, die entscheidet, ob ein Befehl</tspan><tspan x="0" y="375">ausgeführt wird?</tspan><tspan x="0" y="390">15. Wie nennt man es, wenn ein Befehl mehrmals ausgeführt</tspan><tspan x="0" y="405">wird?</tspan><tspan x="0" y="420">16. Wie nennt man eine Anweisung, die dem Computer sagt, was</tspan><tspan x="0" y="435">er tun soll?</tspan></text><g><g><rect x="74" y="598" width="35" height="35" fill="#000000"></rect><rect x="109" y="598" width="35" height="35" fill="#000000"></rect><rect x="144" y="598" width="35" height="35" fill="#000000"></rect><rect x="179" y="598" width="35" height="35" fill="#000000"></rect><rect x="214" y="598" width="35" height="35" fill="#000000"></rect><rect x="249" y="598" width="35" height="35" fill="#000000"></rect><rect x="284" y="598" width="35" height="35" fill="#000000"></rect><rect x="319" y="598" width="35" height="35" fill="#000000"></rect><rect x="354" y="598" width="35" height="35" fill="#000000"></rect><rect x="389" y="598" width="35" height="35" fill="#000000"></rect><rect x="424" y="598" width="35" height="35" fill="#000000"></rect><rect x="459" y="598" width="35" height="35" fill="#000000"></rect><rect x="494" y="598" width="35" height="35" fill="#000000"></rect><rect x="529" y="598" width="35" height="35" fill="#000000"></rect><rect x="144" y="633" width="35" height="35" fill="#000000"></rect><rect x="494" y="633" width="35" height="35" fill="#000000"></rect><rect x="144" y="668" width="35" height="35" fill="#000000"></rect><rect x="494" y="668" width="35" height="35" fill="#000000"></rect><rect x="109" y="703" width="35" height="35" fill="#000000"></rect><rect x="144" y="703" width="35" height="35" fill="#000000"></rect><rect x="179" y="703" width="35" height="35" fill="#000000"></rect><rect x="214" y="703" width="35" height="35" fill="#000000"></rect><rect x="249" y="703" width="35" height="35" fill="#000000"></rect><rect x="284" y="703" width="35" height="35" fill="#000000"></rect><rect x="319" y="703" width="35" height="35" fill="#000000"></rect><rect x="354" y="703" width="35" height="35" fill="#000000"></rect><rect x="284" y="318" width="35" height="35" fill="#000000"></rect><rect x="564" y="318" width="35" height="35" fill="#000000"></rect><rect x="599" y="318" width="35" height="35" fill="#000000"></rect><rect x="634" y="318" width="35" height="35" fill="#000000"></rect><rect x="669" y="318" width="35" height="35" fill="#000000"></rect><rect x="704" y="318" width="35" height="35" fill="#000000"></rect><rect x="739" y="318" width="35" height="35" fill="#000000"></rect><rect x="774" y="318" width="35" height="35" fill="#000000"></rect><rect x="74" y="353" width="35" height="35" fill="#000000"></rect><rect x="109" y="353" width="35" height="35" fill="#000000"></rect><rect x="144" y="353" width="35" height="35" fill="#000000"></rect><rect x="179" y="353" width="35" height="35" fill="#000000"></rect><rect x="214" y="353" width="35" height="35" fill="#000000"></rect><rect x="249" y="353" width="35" height="35" fill="#000000"></rect><rect x="284" y="353" width="35" height="35" fill="#000000"></rect><rect x="319" y="353" width="35" height="35" fill="#000000"></rect><rect x="354" y="353" width="35" height="35" fill="#000000"></rect><rect x="599" y="353" width="35" height="35" fill="#000000"></rect><rect x="774" y="353" width="35" height="35" fill="#000000"></rect><rect x="144" y="388" width="35" height="35" fill="#000000"></rect><rect x="284" y="388" width="35" height="35" fill="#000000"></rect><rect x="599" y="388" width="35" height="35" fill="#000000"></rect><rect x="774" y="388" width="35" height="35" fill="#000000"></rect><rect x="74" y="423" width="35" height="35" fill="#000000"></rect><rect x="109" y="423" width="35" height="35" fill="#000000"></rect><rect x="144" y="423" width="35" height="35" fill="#000000"></rect><rect x="179" y="423" width="35" height="35" fill="#000000"></rect><rect x="214" y="423" width="35" height="35" fill="#000000"></rect><rect x="599" y="423" width="35" height="35" fill="#000000"></rect><rect x="774" y="423" width="35" height="35" fill="#000000"></rect><rect x="4" y="423" width="35" height="35" fill="#000000"></rect><rect x="39" y="423" width="35" height="35" fill="#000000"></rect><rect x="144" y="458" width="35" height="35" fill="#000000"></rect><rect x="599" y="458" width="35" height="35" fill="#000000"></rect><rect x="774" y="458" width="35" height="35" fill="#000000"></rect><rect x="144" y="493" width="35" height="35" fill="#000000"></rect><rect x="494" y="493" width="35" height="35" fill="#000000"></rect><rect x="529" y="493" width="35" height="35" fill="#000000"></rect><rect x="564" y="493" width="35" height="35" fill="#000000"></rect><rect x="74" y="528" width="35" height="35" fill="#000000"></rect><rect x="109" y="528" width="35" height="35" fill="#000000"></rect><rect x="144" y="528" width="35" height="35" fill="#000000"></rect><rect x="179" y="528" width="35" height="35" fill="#000000"></rect><rect x="214" y="528" width="35" height="35" fill="#000000"></rect><rect x="249" y="528" width="35" height="35" fill="#000000"></rect><rect x="284" y="528" width="35" height="35" fill="#000000"></rect><rect x="319" y="528" width="35" height="35" fill="#000000"></rect><rect x="494" y="528" width="35" height="35" fill="#000000"></rect><rect x="144" y="563" width="35" height="35" fill="#000000"></rect><rect x="494" y="563" width="35" height="35" fill="#000000"></rect><rect x="529" y="3" width="35" height="35" fill="#000000"></rect><rect x="284" y="38" width="35" height="35" fill="#000000"></rect><rect x="529" y="38" width="35" height="35" fill="#000000"></rect><rect x="284" y="73" width="35" height="35" fill="#000000"></rect><rect x="529" y="73" width="35" height="35" fill="#000000"></rect><rect x="599" y="73" width="35" height="35" fill="#000000"></rect><rect x="704" y="73" width="35" height="35" fill="#000000"></rect><rect x="284" y="108" width="35" height="35" fill="#000000"></rect><rect x="529" y="108" width="35" height="35" fill="#000000"></rect><rect x="599" y="108" width="35" height="35" fill="#000000"></rect><rect x="704" y="108" width="35" height="35" fill="#000000"></rect><rect x="214" y="143" width="35" height="35" fill="#000000"></rect><rect x="249" y="143" width="35" height="35" fill="#000000"></rect><rect x="284" y="143" width="35" height="35" fill="#000000"></rect><rect x="319" y="143" width="35" height="35" fill="#000000"></rect><rect x="354" y="143" width="35" height="35" fill="#000000"></rect><rect x="389" y="143" width="35" height="35" fill="#000000"></rect><rect x="424" y="143" width="35" height="35" fill="#000000"></rect><rect x="459" y="143" width="35" height="35" fill="#000000"></rect><rect x="494" y="143" width="35" height="35" fill="#000000"></rect><rect x="529" y="143" width="35" height="35" fill="#000000"></rect><rect x="564" y="143" width="35" height="35" fill="#000000"></rect><rect x="599" y="143" width="35" height="35" fill="#000000"></rect><rect x="634" y="143" width="35" height="35" fill="#000000"></rect><rect x="704" y="143" width="35" height="35" fill="#000000"></rect><rect x="284" y="178" width="35" height="35" fill="#000000"></rect><rect x="529" y="178" width="35" height="35" fill="#000000"></rect><rect x="599" y="178" width="35" height="35" fill="#000000"></rect><rect x="704" y="178" width="35" height="35" fill="#000000"></rect><rect x="284" y="213" width="35" height="35" fill="#000000"></rect><rect x="529" y="213" width="35" height="35" fill="#000000"></rect><rect x="599" y="213" width="35" height="35" fill="#000000"></rect><rect x="704" y="213" width="35" height="35" fill="#000000"></rect><rect x="214" y="248" width="35" height="35" fill="#000000"></rect><rect x="249" y="248" width="35" height="35" fill="#000000"></rect><rect x="284" y="248" width="35" height="35" fill="#000000"></rect><rect x="319" y="248" width="35" height="35" fill="#000000"></rect><rect x="354" y="248" width="35" height="35" fill="#000000"></rect><rect x="389" y="248" width="35" height="35" fill="#000000"></rect><rect x="424" y="248" width="35" height="35" fill="#000000"></rect><rect x="459" y="248" width="35" height="35" fill="#000000"></rect><rect x="529" y="248" width="35" height="35" fill="#000000"></rect><rect x="599" y="248" width="35" height="35" fill="#000000"></rect><rect x="704" y="248" width="35" height="35" fill="#000000"></rect><rect x="774" y="248" width="35" height="35" fill="#000000"></rect><rect x="284" y="283" width="35" height="35" fill="#000000"></rect><rect x="599" y="283" width="35" height="35" fill="#000000"></rect><rect x="704" y="283" width="35" height="35" fill="#000000"></rect><rect x="774" y="283" width="35" height="35" fill="#000000"></rect></g><g transform="translate(70, 595)"><rect x="0" y="0" width="35" height="35" fill="#ffffff" stroke="#000000" stroke-width="1"></rect><text style="line-height: 1; font-family: Verdana; font-size: 10px; font-weight: normal; fill: #000000;" x="-8.857421875" y="20.5">5</text><polygon style="fill: options.questionNumbers.color;" points="0,12.5 0,22.5 6.6000000000000005,17.5"></polygon></g><g transform="translate(105, 595)"><rect x="0" y="0" width="35" height="35" fill="#ffffff" stroke="#000000" stroke-width="1"></rect></g><g transform="translate(140, 595)"><rect x="0" y="0" width="35" height="35" fill="#ffffff" stroke="#000000" stroke-width="1"></rect></g><g transform="translate(175, 595)"><rect x="0" y="0" width="35" height="35" fill="#ffffff" stroke="#000000" stroke-width="1"></rect></g><g transform="translate(210, 595)"><rect x="0" y="0" width="35" height="35" fill="#ffffff" stroke="#000000" stroke-width="1"></rect></g><g transform="translate(245, 595)"><rect x="0" y="0" width="35" height="35" fill="#ffffff" stroke="#000000" stroke-width="1"></rect></g><g transform="translate(280, 595)"><rect x="0" y="0" width="35" height="35" fill="#ffffff" stroke="#000000" stroke-width="1"></rect></g><g transform="translate(315, 595)"><rect x="0" y="0" width="35" height="35" fill="#d5d5d5" stroke="#000000" stroke-width="1"></rect><text y="31.5" style="line-height: 1; font-family: Verdana; font-size: 10px; font-weight: bold; fill: #ffffff;" x="24.390625">6</text></g><g transform="translate(350, 595)"><rect x="0" y="0" width="35" height="35" fill="#ffffff" stroke="#000000" stroke-width="1"></rect></g><g transform="translate(385, 595)"><rect x="0" y="0" width="35" height="35" fill="#ffffff" stroke="#000000" stroke-width="1"></rect></g><g transform="translate(420, 595)"><rect x="0" y="0" width="35" height="35" fill="#ffffff" stroke="#000000" stroke-width="1"></rect></g><g transform="translate(455, 595)"><rect x="0" y="0" width="35" height="35" fill="#ffffff" stroke="#000000" stroke-width="1"></rect></g><g transform="translate(490, 595)"><rect x="0" y="0" width="35" height="35" fill="#ffffff" stroke="#000000" stroke-width="1"></rect></g><g transform="translate(525, 595)"><rect x="0" y="0" width="35" height="35" fill="#ffffff" stroke="#000000" stroke-width="1"></rect></g><g transform="translate(140, 630)"><rect x="0" y="0" width="35" height="35" fill="#ffffff" stroke="#000000" stroke-width="1"></rect></g><g transform="translate(490, 630)"><rect x="0" y="0" width="35" height="35" fill="#ffffff" stroke="#000000" stroke-width="1"></rect></g><g transform="translate(140, 665)"><rect x="0" y="0" width="35" height="35" fill="#ffffff" stroke="#000000" stroke-width="1"></rect></g><g transform="translate(490, 665)"><rect x="0" y="0" width="35" height="35" fill="#ffffff" stroke="#000000" stroke-width="1"></rect></g><g transform="translate(105, 700)"><rect x="0" y="0" width="35" height="35" fill="#ffffff" stroke="#000000" stroke-width="1"></rect><text style="line-height: 1; font-family: Verdana; font-size: 10px; font-weight: normal; fill: #000000;" x="-8.857421875" y="20.5">6</text><polygon style="fill: options.questionNumbers.color;" points="0,12.5 0,22.5 6.6000000000000005,17.5"></polygon></g><g transform="translate(140, 700)"><rect x="0" y="0" width="35" height="35" fill="#ffffff" stroke="#000000" stroke-width="1"></rect></g><g transform="translate(175, 700)"><rect x="0" y="0" width="35" height="35" fill="#ffffff" stroke="#000000" stroke-width="1"></rect></g><g transform="translate(210, 700)"><rect x="0" y="0" width="35" height="35" fill="#ffffff" stroke="#000000" stroke-width="1"></rect></g><g transform="translate(245, 700)"><rect x="0" y="0" width="35" height="35" fill="#ffffff" stroke="#000000" stroke-width="1"></rect></g><g transform="translate(280, 700)"><rect x="0" y="0" width="35" height="35" fill="#ffffff" stroke="#000000" stroke-width="1"></rect></g><g transform="translate(315, 700)"><rect x="0" y="0" width="35" height="35" fill="#ffffff" stroke="#000000" stroke-width="1"></rect></g><g transform="translate(350, 700)"><rect x="0" y="0" width="35" height="35" fill="#ffffff" stroke="#000000" stroke-width="1"></rect></g><g transform="translate(280, 315)"><rect x="0" y="0" width="35" height="35" fill="#ffffff" stroke="#000000" stroke-width="1"></rect></g><g transform="translate(560, 315)"><rect x="0" y="0" width="35" height="35" fill="#ffffff" stroke="#000000" stroke-width="1"></rect><text style="line-height: 1; font-family: Verdana; font-size: 10px; font-weight: normal; fill: #000000;" x="-15.21484375" y="20.5">11</text><polygon style="fill: options.questionNumbers.color;" points="0,12.5 0,22.5 6.6000000000000005,17.5"></polygon></g><g transform="translate(595, 315)"><rect x="0" y="0" width="35" height="35" fill="#d5d5d5" stroke="#000000" stroke-width="1"></rect><text y="31.5" style="line-height: 1; font-family: Verdana; font-size: 10px; font-weight: bold; fill: #ffffff;" x="24.390625">3</text></g><g transform="translate(630, 315)"><rect x="0" y="0" width="35" height="35" fill="#ffffff" stroke="#000000" stroke-width="1"></rect></g><g transform="translate(665, 315)"><rect x="0" y="0" width="35" height="35" fill="#ffffff" stroke="#000000" stroke-width="1"></rect></g><g transform="translate(700, 315)"><rect x="0" y="0" width="35" height="35" fill="#ffffff" stroke="#000000" stroke-width="1"></rect></g><g transform="translate(735, 315)"><rect x="0" y="0" width="35" height="35" fill="#ffffff" stroke="#000000" stroke-width="1"></rect></g><g transform="translate(770, 315)"><rect x="0" y="0" width="35" height="35" fill="#ffffff" stroke="#000000" stroke-width="1"></rect></g><g transform="translate(70, 350)"><rect x="0" y="0" width="35" height="35" fill="#ffffff" stroke="#000000" stroke-width="1"></rect><text style="line-height: 1; font-family: Verdana; font-size: 10px; font-weight: normal; fill: #000000;" x="-15.21484375" y="20.5">14</text><polygon style="fill: options.questionNumbers.color;" points="0,12.5 0,22.5 6.6000000000000005,17.5"></polygon></g><g transform="translate(105, 350)"><rect x="0" y="0" width="35" height="35" fill="#ffffff" stroke="#000000" stroke-width="1"></rect></g><g transform="translate(140, 350)"><rect x="0" y="0" width="35" height="35" fill="#ffffff" stroke="#000000" stroke-width="1"></rect><text style="line-height: 1; font-family: Verdana; font-size: 10px; font-weight: normal; fill: #000000;" x="14.3212890625" y="-3.5">9</text><polygon style="fill: options.questionNumbers.color;" points="12.5,0 22.5,0 17.5,6.6000000000000005"></polygon></g><g transform="translate(175, 350)"><rect x="0" y="0" width="35" height="35" fill="#ffffff" stroke="#000000" stroke-width="1"></rect></g><g transform="translate(210, 350)"><rect x="0" y="0" width="35" height="35" fill="#ffffff" stroke="#000000" stroke-width="1"></rect></g><g transform="translate(245, 350)"><rect x="0" y="0" width="35" height="35" fill="#ffffff" stroke="#000000" stroke-width="1"></rect></g><g transform="translate(280, 350)"><rect x="0" y="0" width="35" height="35" fill="#d5d5d5" stroke="#000000" stroke-width="1"></rect><text y="31.5" style="line-height: 1; font-family: Verdana; font-size: 10px; font-weight: bold; fill: #ffffff;" x="24.390625">5</text></g><g transform="translate(315, 350)"><rect x="0" y="0" width="35" height="35" fill="#ffffff" stroke="#000000" stroke-width="1"></rect></g><g transform="translate(350, 350)"><rect x="0" y="0" width="35" height="35" fill="#ffffff" stroke="#000000" stroke-width="1"></rect></g><g transform="translate(595, 350)"><rect x="0" y="0" width="35" height="35" fill="#ffffff" stroke="#000000" stroke-width="1"></rect></g><g transform="translate(770, 350)"><rect x="0" y="0" width="35" height="35" fill="#ffffff" stroke="#000000" stroke-width="1"></rect></g><g transform="translate(140, 385)"><rect x="0" y="0" width="35" height="35" fill="#ffffff" stroke="#000000" stroke-width="1"></rect></g><g transform="translate(280, 385)"><rect x="0" y="0" width="35" height="35" fill="#ffffff" stroke="#000000" stroke-width="1"></rect></g><g transform="translate(595, 385)"><rect x="0" y="0" width="35" height="35" fill="#ffffff" stroke="#000000" stroke-width="1"></rect></g><g transform="translate(770, 385)"><rect x="0" y="0" width="35" height="35" fill="#ffffff" stroke="#000000" stroke-width="1"></rect></g><g transform="translate(70, 420)"><rect x="0" y="0" width="35" height="35" fill="#ffffff" stroke="#000000" stroke-width="1"></rect></g><g transform="translate(105, 420)"><rect x="0" y="0" width="35" height="35" fill="#ffffff" stroke="#000000" stroke-width="1"></rect></g><g transform="translate(140, 420)"><rect x="0" y="0" width="35" height="35" fill="#ffffff" stroke="#000000" stroke-width="1"></rect></g><g transform="translate(175, 420)"><rect x="0" y="0" width="35" height="35" fill="#ffffff" stroke="#000000" stroke-width="1"></rect></g><g transform="translate(210, 420)"><rect x="0" y="0" width="35" height="35" fill="#ffffff" stroke="#000000" stroke-width="1"></rect></g><g transform="translate(595, 420)"><rect x="0" y="0" width="35" height="35" fill="#ffffff" stroke="#000000" stroke-width="1"></rect></g><g transform="translate(770, 420)"><rect x="0" y="0" width="35" height="35" fill="#ffffff" stroke="#000000" stroke-width="1"></rect></g><g transform="translate(0, 420)"><rect x="0" y="0" width="35" height="35" fill="#ffffff" stroke="#000000" stroke-width="1"></rect><text style="line-height: 1; font-family: Verdana; font-size: 10px; font-weight: normal; fill: #000000;" x="-15.21484375" y="20.5">12</text><polygon style="fill: options.questionNumbers.color;" points="0,12.5 0,22.5 6.6000000000000005,17.5"></polygon></g><g transform="translate(35, 420)"><rect x="0" y="0" width="35" height="35" fill="#ffffff" stroke="#000000" stroke-width="1"></rect></g><g transform="translate(140, 455)"><rect x="0" y="0" width="35" height="35" fill="#ffffff" stroke="#000000" stroke-width="1"></rect></g><g transform="translate(595, 455)"><rect x="0" y="0" width="35" height="35" fill="#ffffff" stroke="#000000" stroke-width="1"></rect></g><g transform="translate(770, 455)"><rect x="0" y="0" width="35" height="35" fill="#ffffff" stroke="#000000" stroke-width="1"></rect></g><g transform="translate(140, 490)"><rect x="0" y="0" width="35" height="35" fill="#ffffff" stroke="#000000" stroke-width="1"></rect></g><g transform="translate(490, 490)"><rect x="0" y="0" width="35" height="35" fill="#ffffff" stroke="#000000" stroke-width="1"></rect><text style="line-height: 1; font-family: Verdana; font-size: 10px; font-weight: normal; fill: #000000;" x="-15.21484375" y="20.5">10</text><polygon style="fill: options.questionNumbers.color;" points="0,12.5 0,22.5 6.6000000000000005,17.5"></polygon><text style="line-height: 1; font-family: Verdana; font-size: 10px; font-weight: normal; fill: #000000;" x="11.142578125" y="-3.5">16</text><polygon style="fill: options.questionNumbers.color;" points="12.5,0 22.5,0 17.5,6.6000000000000005"></polygon></g><g transform="translate(525, 490)"><rect x="0" y="0" width="35" height="35" fill="#ffffff" stroke="#000000" stroke-width="1"></rect></g><g transform="translate(560, 490)"><rect x="0" y="0" width="35" height="35" fill="#ffffff" stroke="#000000" stroke-width="1"></rect></g><g transform="translate(70, 525)"><rect x="0" y="0" width="35" height="35" fill="#ffffff" stroke="#000000" stroke-width="1"></rect><text style="line-height: 1; font-family: Verdana; font-size: 10px; font-weight: normal; fill: #000000;" x="-8.857421875" y="20.5">2</text><polygon style="fill: options.questionNumbers.color;" points="0,12.5 0,22.5 6.6000000000000005,17.5"></polygon></g><g transform="translate(105, 525)"><rect x="0" y="0" width="35" height="35" fill="#ffffff" stroke="#000000" stroke-width="1"></rect></g><g transform="translate(140, 525)"><rect x="0" y="0" width="35" height="35" fill="#ffffff" stroke="#000000" stroke-width="1"></rect></g><g transform="translate(175, 525)"><rect x="0" y="0" width="35" height="35" fill="#ffffff" stroke="#000000" stroke-width="1"></rect></g><g transform="translate(210, 525)"><rect x="0" y="0" width="35" height="35" fill="#ffffff" stroke="#000000" stroke-width="1"></rect></g><g transform="translate(245, 525)"><rect x="0" y="0" width="35" height="35" fill="#ffffff" stroke="#000000" stroke-width="1"></rect></g><g transform="translate(280, 525)"><rect x="0" y="0" width="35" height="35" fill="#ffffff" stroke="#000000" stroke-width="1"></rect></g><g transform="translate(315, 525)"><rect x="0" y="0" width="35" height="35" fill="#ffffff" stroke="#000000" stroke-width="1"></rect></g><g transform="translate(490, 525)"><rect x="0" y="0" width="35" height="35" fill="#ffffff" stroke="#000000" stroke-width="1"></rect></g><g transform="translate(140, 560)"><rect x="0" y="0" width="35" height="35" fill="#ffffff" stroke="#000000" stroke-width="1"></rect></g><g transform="translate(490, 560)"><rect x="0" y="0" width="35" height="35" fill="#ffffff" stroke="#000000" stroke-width="1"></rect></g><g transform="translate(525, 0)"><rect x="0" y="0" width="35" height="35" fill="#ffffff" stroke="#000000" stroke-width="1"></rect><text style="line-height: 1; font-family: Verdana; font-size: 10px; font-weight: normal; fill: #000000;" x="14.3212890625" y="-3.5">3</text><polygon style="fill: options.questionNumbers.color;" points="12.5,0 22.5,0 17.5,6.6000000000000005"></polygon></g><g transform="translate(280, 35)"><rect x="0" y="0" width="35" height="35" fill="#ffffff" stroke="#000000" stroke-width="1"></rect><text style="line-height: 1; font-family: Verdana; font-size: 10px; font-weight: normal; fill: #000000;" x="14.3212890625" y="-3.5">1</text><polygon style="fill: options.questionNumbers.color;" points="12.5,0 22.5,0 17.5,6.6000000000000005"></polygon></g><g transform="translate(525, 35)"><rect x="0" y="0" width="35" height="35" fill="#ffffff" stroke="#000000" stroke-width="1"></rect></g><g transform="translate(280, 70)"><rect x="0" y="0" width="35" height="35" fill="#ffffff" stroke="#000000" stroke-width="1"></rect></g><g transform="translate(525, 70)"><rect x="0" y="0" width="35" height="35" fill="#ffffff" stroke="#000000" stroke-width="1"></rect></g><g transform="translate(595, 70)"><rect x="0" y="0" width="35" height="35" fill="#ffffff" stroke="#000000" stroke-width="1"></rect><text style="line-height: 1; font-family: Verdana; font-size: 10px; font-weight: normal; fill: #000000;" x="11.142578125" y="-3.5">15</text><polygon style="fill: options.questionNumbers.color;" points="12.5,0 22.5,0 17.5,6.6000000000000005"></polygon></g><g transform="translate(700, 70)"><rect x="0" y="0" width="35" height="35" fill="#ffffff" stroke="#000000" stroke-width="1"></rect><text style="line-height: 1; font-family: Verdana; font-size: 10px; font-weight: normal; fill: #000000;" x="14.3212890625" y="-3.5">7</text><polygon style="fill: options.questionNumbers.color;" points="12.5,0 22.5,0 17.5,6.6000000000000005"></polygon></g><g transform="translate(280, 105)"><rect x="0" y="0" width="35" height="35" fill="#ffffff" stroke="#000000" stroke-width="1"></rect></g><g transform="translate(525, 105)"><rect x="0" y="0" width="35" height="35" fill="#ffffff" stroke="#000000" stroke-width="1"></rect></g><g transform="translate(595, 105)"><rect x="0" y="0" width="35" height="35" fill="#ffffff" stroke="#000000" stroke-width="1"></rect></g><g transform="translate(700, 105)"><rect x="0" y="0" width="35" height="35" fill="#ffffff" stroke="#000000" stroke-width="1"></rect></g><g transform="translate(210, 140)"><rect x="0" y="0" width="35" height="35" fill="#d5d5d5" stroke="#000000" stroke-width="1"></rect><text y="31.5" style="line-height: 1; font-family: Verdana; font-size: 10px; font-weight: bold; fill: #ffffff;" x="24.390625">1</text><text style="line-height: 1; font-family: Verdana; font-size: 10px; font-weight: normal; fill: #000000;" x="-8.857421875" y="20.5">4</text><polygon style="fill: options.questionNumbers.color;" points="0,12.5 0,22.5 6.6000000000000005,17.5"></polygon></g><g transform="translate(245, 140)"><rect x="0" y="0" width="35" height="35" fill="#ffffff" stroke="#000000" stroke-width="1"></rect></g><g transform="translate(280, 140)"><rect x="0" y="0" width="35" height="35" fill="#ffffff" stroke="#000000" stroke-width="1"></rect></g><g transform="translate(315, 140)"><rect x="0" y="0" width="35" height="35" fill="#ffffff" stroke="#000000" stroke-width="1"></rect></g><g transform="translate(350, 140)"><rect x="0" y="0" width="35" height="35" fill="#ffffff" stroke="#000000" stroke-width="1"></rect></g><g transform="translate(385, 140)"><rect x="0" y="0" width="35" height="35" fill="#ffffff" stroke="#000000" stroke-width="1"></rect></g><g transform="translate(420, 140)"><rect x="0" y="0" width="35" height="35" fill="#ffffff" stroke="#000000" stroke-width="1"></rect></g><g transform="translate(455, 140)"><rect x="0" y="0" width="35" height="35" fill="#ffffff" stroke="#000000" stroke-width="1"></rect></g><g transform="translate(490, 140)"><rect x="0" y="0" width="35" height="35" fill="#ffffff" stroke="#000000" stroke-width="1"></rect></g><g transform="translate(525, 140)"><rect x="0" y="0" width="35" height="35" fill="#ffffff" stroke="#000000" stroke-width="1"></rect></g><g transform="translate(560, 140)"><rect x="0" y="0" width="35" height="35" fill="#ffffff" stroke="#000000" stroke-width="1"></rect></g><g transform="translate(595, 140)"><rect x="0" y="0" width="35" height="35" fill="#ffffff" stroke="#000000" stroke-width="1"></rect></g><g transform="translate(630, 140)"><rect x="0" y="0" width="35" height="35" fill="#ffffff" stroke="#000000" stroke-width="1"></rect></g><g transform="translate(700, 140)"><rect x="0" y="0" width="35" height="35" fill="#ffffff" stroke="#000000" stroke-width="1"></rect></g><g transform="translate(280, 175)"><rect x="0" y="0" width="35" height="35" fill="#d5d5d5" stroke="#000000" stroke-width="1"></rect><text y="31.5" style="line-height: 1; font-family: Verdana; font-size: 10px; font-weight: bold; fill: #ffffff;" x="24.390625">2</text></g><g transform="translate(525, 175)"><rect x="0" y="0" width="35" height="35" fill="#ffffff" stroke="#000000" stroke-width="1"></rect></g><g transform="translate(595, 175)"><rect x="0" y="0" width="35" height="35" fill="#ffffff" stroke="#000000" stroke-width="1"></rect></g><g transform="translate(700, 175)"><rect x="0" y="0" width="35" height="35" fill="#ffffff" stroke="#000000" stroke-width="1"></rect></g><g transform="translate(280, 210)"><rect x="0" y="0" width="35" height="35" fill="#ffffff" stroke="#000000" stroke-width="1"></rect></g><g transform="translate(525, 210)"><rect x="0" y="0" width="35" height="35" fill="#ffffff" stroke="#000000" stroke-width="1"></rect></g><g transform="translate(595, 210)"><rect x="0" y="0" width="35" height="35" fill="#ffffff" stroke="#000000" stroke-width="1"></rect></g><g transform="translate(700, 210)"><rect x="0" y="0" width="35" height="35" fill="#ffffff" stroke="#000000" stroke-width="1"></rect></g><g transform="translate(210, 245)"><rect x="0" y="0" width="35" height="35" fill="#ffffff" stroke="#000000" stroke-width="1"></rect><text style="line-height: 1; font-family: Verdana; font-size: 10px; font-weight: normal; fill: #000000;" x="-8.857421875" y="20.5">8</text><polygon style="fill: options.questionNumbers.color;" points="0,12.5 0,22.5 6.6000000000000005,17.5"></polygon></g><g transform="translate(245, 245)"><rect x="0" y="0" width="35" height="35" fill="#ffffff" stroke="#000000" stroke-width="1"></rect></g><g transform="translate(280, 245)"><rect x="0" y="0" width="35" height="35" fill="#ffffff" stroke="#000000" stroke-width="1"></rect></g><g transform="translate(315, 245)"><rect x="0" y="0" width="35" height="35" fill="#ffffff" stroke="#000000" stroke-width="1"></rect></g><g transform="translate(350, 245)"><rect x="0" y="0" width="35" height="35" fill="#ffffff" stroke="#000000" stroke-width="1"></rect></g><g transform="translate(385, 245)"><rect x="0" y="0" width="35" height="35" fill="#ffffff" stroke="#000000" stroke-width="1"></rect></g><g transform="translate(420, 245)"><rect x="0" y="0" width="35" height="35" fill="#ffffff" stroke="#000000" stroke-width="1"></rect></g><g transform="translate(455, 245)"><rect x="0" y="0" width="35" height="35" fill="#ffffff" stroke="#000000" stroke-width="1"></rect></g><g transform="translate(525, 245)"><rect x="0" y="0" width="35" height="35" fill="#ffffff" stroke="#000000" stroke-width="1"></rect></g><g transform="translate(595, 245)"><rect x="0" y="0" width="35" height="35" fill="#ffffff" stroke="#000000" stroke-width="1"></rect></g><g transform="translate(700, 245)"><rect x="0" y="0" width="35" height="35" fill="#ffffff" stroke="#000000" stroke-width="1"></rect></g><g transform="translate(770, 245)"><rect x="0" y="0" width="35" height="35" fill="#d5d5d5" stroke="#000000" stroke-width="1"></rect><text y="31.5" style="line-height: 1; font-family: Verdana; font-size: 10px; font-weight: bold; fill: #ffffff;" x="24.390625">4</text><text style="line-height: 1; font-family: Verdana; font-size: 10px; font-weight: normal; fill: #000000;" x="11.142578125" y="-3.5">13</text><polygon style="fill: options.questionNumbers.color;" points="12.5,0 22.5,0 17.5,6.6000000000000005"></polygon></g><g transform="translate(280, 280)"><rect x="0" y="0" width="35" height="35" fill="#ffffff" stroke="#000000" stroke-width="1"></rect></g><g transform="translate(595, 280)"><rect x="0" y="0" width="35" height="35" fill="#ffffff" stroke="#000000" stroke-width="1"></rect></g><g transform="translate(700, 280)"><rect x="0" y="0" width="35" height="35" fill="#ffffff" stroke="#000000" stroke-width="1"></rect></g><g transform="translate(770, 280)"><rect x="0" y="0" width="35" height="35" fill="#ffffff" stroke="#000000" stroke-width="1"></rect></g></g><g transform="translate(0, 758)"><g><rect x="4" y="3" width="35" height="35" fill="#000000"></rect><rect x="39" y="3" width="35" height="35" fill="#000000"></rect><rect x="74" y="3" width="35" height="35" fill="#000000"></rect><rect x="109" y="3" width="35" height="35" fill="#000000"></rect><rect x="144" y="3" width="35" height="35" fill="#000000"></rect><rect x="179" y="3" width="35" height="35" fill="#000000"></rect></g><g transform="translate(0, 0)"><rect x="0" y="0" width="35" height="35" fill="#d5d5d5" stroke="#000000" stroke-width="1"></rect><text y="23.75" style="line-height: 1; font-family: Verdana; font-size: 16px; font-weight: bold; fill: #ffffff;" x="11.8125">1</text></g><g transform="translate(35, 0)"><rect x="0" y="0" width="35" height="35" fill="#d5d5d5" stroke="#000000" stroke-width="1"></rect><text y="23.75" style="line-height: 1; font-family: Verdana; font-size: 16px; font-weight: bold; fill: #ffffff;" x="11.8125">2</text></g><g transform="translate(70, 0)"><rect x="0" y="0" width="35" height="35" fill="#d5d5d5" stroke="#000000" stroke-width="1"></rect><text y="23.75" style="line-height: 1; font-family: Verdana; font-size: 16px; font-weight: bold; fill: #ffffff;" x="11.8125">3</text></g><g transform="translate(105, 0)"><rect x="0" y="0" width="35" height="35" fill="#d5d5d5" stroke="#000000" stroke-width="1"></rect><text y="23.75" style="line-height: 1; font-family: Verdana; font-size: 16px; font-weight: bold; fill: #ffffff;" x="11.8125">4</text></g><g transform="translate(140, 0)"><rect x="0" y="0" width="35" height="35" fill="#d5d5d5" stroke="#000000" stroke-width="1"></rect><text y="23.75" style="line-height: 1; font-family: Verdana; font-size: 16px; font-weight: bold; fill: #ffffff;" x="11.8125">5</text></g><g transform="translate(175, 0)"><rect x="0" y="0" width="35" height="35" fill="#d5d5d5" stroke="#000000" stroke-width="1"></rect><text y="23.75" style="line-height: 1; font-family: Verdana; font-size: 16px; font-weight: bold; fill: #ffffff;" x="11.8125">6</text></g></g><text transform="translate(0, 843)" style="line-height: 1; font-family: Verdana; font-size: 12px; font-weight: normal; fill: #000000;"><tspan x="0" y="-15">Erstellt mit XWords - dem kostenlosen Online-Kreuzworträtsel-Generator</tspan><tspan x="0" y="0">https://www.xwords-generator.de/de</tspan></text></svg>