<!-- Copyright 2000-2021 JetBrains s.r.o. and contributors. Use of this source code is governed by the Apache 2.0 license that can be found in the LICENSE file. -->
<svg xmlns="http://www.w3.org/2000/svg" width="16" height="16" viewBox="0 0 16 16">
  <g fill="none" fill-rule="evenodd">
    <polygon fill="#F26522" fill-opacity=".7" points="1 16 16 16 16 9 1 9"/>
    <polygon fill="#9AA7B0" fill-opacity=".8" points="7 1 3 5 7 5"/>
    <polygon fill="#9AA7B0" fill-opacity=".8" points="8 1 8 6 3 6 3 8 13 8 13 1"/>
    <path fill="#231F20" fill-opacity=".7" d="M1,1 L1,4 L1.649,4 C2.578,4 3,3.493 3,2.515 L3,2.5 C3,1.522 2.578,1 1.649,1 L1,1 Z M0,0 L1.649,0 C3.04,0 4,1.093 4,2.5 C4,3.921 3.04,5 1.649,5 L0,5 L0,0 Z" transform="translate(2 10)"/>
    <polygon fill="#231F20" fill-opacity=".7" points=".5,0 1.75,0 3.5,3.75 3.5,0 4.5,0 4.5,5 3.5,5 1.5,1 1.5,5 .5,5" transform="translate(6 10)"/>
    <path fill="#231F20" fill-opacity=".7"
          d="M0 4.08Q0 3.30 0.30 2.73Q0.60 2.16 1.16 1.85Q1.72 1.54 2.49 1.54Q2.93 1.54 3.28 1.63Q3.63 1.72 3.97 1.88L3.97 2.74L3.94 2.74Q3.70 2.60 3.34 2.50Q2.98 2.39 2.56 2.39Q0.97 2.39 0.97 4.07Q0.97 4.89 1.35 5.31Q1.73 5.73 2.46 5.73Q3.04 5.73 3.33 5.48L3.33 4.75L2.41 4.75L2.41 3.98L4.26 3.98L4.26 5.97Q3.70 6.31 3.29 6.45Q2.88 6.58 2.43 6.58Q1.66 6.58 1.11 6.27Q0.57 5.96 0.28 5.40Q0 4.84 0 4.08Z"
          transform="translate(11 8.5)"/>
  </g>
</svg>
