<?xml version="1.0" encoding="UTF-8"?>
<!DOCTYPE svg PUBLIC "-//W3C//DTD SVG 1.1//EN" "http://www.w3.org/Graphics/SVG/1.1/DTD/svg11.dtd">
<svg xmlns="http://www.w3.org/2000/svg" version="1.1" width="128px" height="128px" style="shape-rendering:geometricPrecision; text-rendering:geometricPrecision; image-rendering:optimizeQuality; fill-rule:evenodd; clip-rule:evenodd" xmlns:xlink="http://www.w3.org/1999/xlink">
<g><path style="opacity:1" fill="#4d2705" d="M 55.5,5.5 C 54.1667,5.5 52.8333,5.5 51.5,5.5C 51.5,4.16667 51.5,2.83333 51.5,1.5C 52.8333,1.5 54.1667,1.5 55.5,1.5C 55.5,2.83333 55.5,4.16667 55.5,5.5 Z"/></g>
<g><path style="opacity:1" fill="#4d2705" d="M 83.5,5.5 C 82.1667,5.5 80.8333,5.5 79.5,5.5C 79.5,4.16667 79.5,2.83333 79.5,1.5C 80.8333,1.5 82.1667,1.5 83.5,1.5C 83.5,2.83333 83.5,4.16667 83.5,5.5 Z"/></g>
<g><path style="opacity:1" fill="#4d2705" d="M 79.5,5.5 C 78.8333,7.5 77.5,8.83333 75.5,9.5C 75.5,8.16667 75.5,6.83333 75.5,5.5C 76.8333,5.5 78.1667,5.5 79.5,5.5 Z"/></g>
<g><path style="opacity:1" fill="#db659f" d="M 57.5,17.5 C 56.8333,22.1667 54.1667,24.8333 49.5,25.5C 48.2227,24.3064 47.5561,22.6397 47.5,20.5C 48.001,15.6555 49.6676,11.3221 52.5,7.5C 55.2434,10.3202 56.9101,13.6535 57.5,17.5 Z"/></g>
<g><path style="opacity:1" fill="#4d2705" d="M 85.5,7.5 C 86.8117,9.74317 87.4783,12.4098 87.5,15.5C 87.4783,18.5902 86.8117,21.2568 85.5,23.5C 85.5,18.8333 85.5,14.1667 85.5,9.5C 85.5,8.83333 85.5,8.16667 85.5,7.5 Z"/></g>
<g><path style="opacity:1" fill="#4d2705" d="M 47.5,9.5 C 45.9021,15.3599 45.2354,21.3599 45.5,27.5C 44.1883,25.2568 43.5217,22.5902 43.5,19.5C 43.8333,16.8333 44.1667,14.1667 44.5,11.5C 45.2652,10.3881 46.2652,9.72142 47.5,9.5 Z"/></g>
<g><path style="opacity:1" fill="#d9659d" d="M 85.5,9.5 C 85.5,14.1667 85.5,18.8333 85.5,23.5C 84.1667,23.5 82.8333,23.5 81.5,23.5C 80.661,20.3128 79.3276,17.3128 77.5,14.5C 78.3608,11.6318 80.0275,9.29849 82.5,7.5C 83.2652,8.61191 84.2652,9.27858 85.5,9.5 Z"/></g>
<g><path style="opacity:1" fill="#ae5408" d="M 51.5,5.5 C 52.8333,5.5 54.1667,5.5 55.5,5.5C 56.8333,5.5 58.1667,5.5 59.5,5.5C 59.5,6.83333 59.5,8.16667 59.5,9.5C 60.8333,9.5 62.1667,9.5 63.5,9.5C 63.5,10.8333 63.5,12.1667 63.5,13.5C 66.1667,13.5 68.8333,13.5 71.5,13.5C 71.5,12.1667 71.5,10.8333 71.5,9.5C 72.8333,9.5 74.1667,9.5 75.5,9.5C 75.2786,10.7348 74.6119,11.7348 73.5,12.5C 75.5342,14.5989 75.8676,16.9323 74.5,19.5C 71.6115,16.1893 67.9448,14.856 63.5,15.5C 63.0583,20.6945 62.0583,20.6945 60.5,15.5C 59.7348,16.6119 58.7348,17.2786 57.5,17.5C 56.9101,13.6535 55.2434,10.3202 52.5,7.5C 49.6676,11.3221 48.001,15.6555 47.5,20.5C 47.5561,22.6397 48.2227,24.3064 49.5,25.5C 50.3351,26.9432 51.6684,27.9432 53.5,28.5C 52.5853,29.3279 51.9186,30.3279 51.5,31.5C 52.8599,34.2198 54.1932,36.8864 55.5,39.5C 51.5,39.5 49.5,37.5 49.5,33.5C 47.5082,33.6715 45.8415,33.0049 44.5,31.5C 42.8333,33.1667 41.1667,34.8333 39.5,36.5C 41.3983,37.7345 43.065,37.4011 44.5,35.5C 45.6771,40.2265 48.6771,42.2265 53.5,41.5C 53.0828,44.3433 52.0828,47.01 50.5,49.5C 49.7025,49.0431 49.3691,48.3764 49.5,47.5C 48.8333,45.5 47.5,44.1667 45.5,43.5C 42.2248,41.1861 38.8914,38.8528 35.5,36.5C 38.6265,33.028 41.9598,30.028 45.5,27.5C 45.2354,21.3599 45.9021,15.3599 47.5,9.5C 47.5,8.16667 47.5,6.83333 47.5,5.5C 48.8333,5.5 50.1667,5.5 51.5,5.5 Z"/></g>
<g><path style="opacity:1" fill="#633107" d="M 25.5,33.5 C 20.1667,33.5 14.8333,33.5 9.5,33.5C 11.7432,32.1883 14.4098,31.5217 17.5,31.5C 20.5902,31.5217 23.2568,32.1883 25.5,33.5 Z"/></g>
<g><path style="opacity:1" fill="#f07a1c" d="M 9.5,33.5 C 14.8333,33.5 20.1667,33.5 25.5,33.5C 26.8333,33.5 27.5,34.1667 27.5,35.5C 28.1667,38.1667 28.8333,40.8333 29.5,43.5C 28.8333,48.8333 28.1667,48.8333 27.5,43.5C 24.4652,43.4789 22.1319,42.1455 20.5,39.5C 16.3838,40.9582 12.7172,42.9582 9.5,45.5C 7.96418,47.0251 6.96418,49.0251 6.5,51.5C 6.03582,49.0251 5.03582,47.0251 3.5,45.5C 3.5,43.5 3.5,41.5 3.5,39.5C 4.83333,36.8333 6.83333,34.8333 9.5,33.5 Z"/></g>
<g><path style="opacity:1" fill="#623008" d="M 87.5,27.5 C 90.7907,29.4573 93.4574,32.124 95.5,35.5C 94.192,38.7302 93.192,42.0636 92.5,45.5C 91.0834,47.2611 89.4167,48.5944 87.5,49.5C 87.4228,46.9876 88.4228,44.9876 90.5,43.5C 91.48,40.9135 91.8134,38.2469 91.5,35.5C 90.1667,35.5 88.8333,35.5 87.5,35.5C 87.5,32.8333 87.5,30.1667 87.5,27.5 Z"/></g>
<g><path style="opacity:1" fill="#4d2705" d="M 3.5,39.5 C 3.5,41.5 3.5,43.5 3.5,45.5C 3.5,48.8333 3.5,52.1667 3.5,55.5C 2.18834,53.2568 1.52168,50.5902 1.5,47.5C 1.52168,44.4098 2.18834,41.7432 3.5,39.5 Z"/></g>
<g><path style="opacity:1" fill="#b2570b" d="M 29.5,43.5 C 31.0348,44.8439 32.3681,46.5106 33.5,48.5C 31.8333,50.1667 30.1667,51.8333 28.5,53.5C 26.5879,51.3428 24.9213,49.0094 23.5,46.5C 22.1667,46.1667 20.8333,45.8333 19.5,45.5C 17.6672,45.5854 16.3339,46.2521 15.5,47.5C 15.5,48.8333 15.5,50.1667 15.5,51.5C 13.0437,49.8871 11.0437,47.8871 9.5,45.5C 12.7172,42.9582 16.3838,40.9582 20.5,39.5C 22.1319,42.1455 24.4652,43.4789 27.5,43.5C 28.1667,48.8333 28.8333,48.8333 29.5,43.5 Z"/></g>
<g><path style="opacity:1" fill="#4d2705" d="M 45.5,43.5 C 47.5,44.1667 48.8333,45.5 49.5,47.5C 45.5,48.8333 41.5,50.1667 37.5,51.5C 40.1667,48.8333 42.8333,46.1667 45.5,43.5 Z"/></g>
<g><path style="opacity:1" fill="#512806" d="M 27.5,35.5 C 28.7348,35.7214 29.7348,36.3881 30.5,37.5C 32.9252,42.3504 35.2585,47.0171 37.5,51.5C 35.9202,54.0885 33.9202,56.4218 31.5,58.5C 28.6384,59.4305 26.305,61.0971 24.5,63.5C 22.8706,67.7457 20.8706,71.7457 18.5,75.5C 18.1667,78.5 17.8333,81.5 17.5,84.5C 18.0957,90.1955 18.7623,95.8621 19.5,101.5C 17.9642,99.9749 16.9642,97.9749 16.5,95.5C 15.1667,88.1667 15.1667,80.8333 16.5,73.5C 17.1667,72.8333 17.8333,72.1667 18.5,71.5C 20.4625,66.5804 22.1292,61.5804 23.5,56.5C 22.9544,53.4344 22.2877,50.4344 21.5,47.5C 19.5,47.5 17.5,47.5 15.5,47.5C 16.3339,46.2521 17.6672,45.5854 19.5,45.5C 20.8333,45.8333 22.1667,46.1667 23.5,46.5C 24.9213,49.0094 26.5879,51.3428 28.5,53.5C 30.1667,51.8333 31.8333,50.1667 33.5,48.5C 32.3681,46.5106 31.0348,44.8439 29.5,43.5C 28.8333,40.8333 28.1667,38.1667 27.5,35.5 Z"/></g>
<g><path style="opacity:1" fill="#dbd4d1" d="M 3.5,45.5 C 5.03582,47.0251 6.03582,49.0251 6.5,51.5C 6.96418,49.0251 7.96418,47.0251 9.5,45.5C 11.0437,47.8871 13.0437,49.8871 15.5,51.5C 16.5862,51.62 17.2528,52.2867 17.5,53.5C 16.789,55.5446 15.4557,56.8779 13.5,57.5C 10.8333,57.5 8.16667,57.5 5.5,57.5C 4.16667,57.5 3.5,56.8333 3.5,55.5C 3.5,52.1667 3.5,48.8333 3.5,45.5 Z"/></g>
<g><path style="opacity:1" fill="#dedad9" d="M 61.5,55.5 C 61.5,56.1667 61.5,56.8333 61.5,57.5C 59.5,57.5 57.5,57.5 55.5,57.5C 55.5,64.1667 55.5,70.8333 55.5,77.5C 53.5833,76.5944 51.9166,75.2611 50.5,73.5C 49.1667,69.5 47.8333,65.5 46.5,61.5C 45.5,60.5 44.5,59.5 43.5,58.5C 45.9573,55.4416 48.9573,53.1083 52.5,51.5C 55.1594,53.6644 58.1594,54.9977 61.5,55.5 Z"/></g>
<g><path style="opacity:1" fill="#4d2705" d="M 61.5,55.5 C 66.8333,55.5 72.1667,55.5 77.5,55.5C 77.5,56.1667 77.5,56.8333 77.5,57.5C 72.1667,57.5 66.8333,57.5 61.5,57.5C 61.5,56.8333 61.5,56.1667 61.5,55.5 Z"/></g>
<g><path style="opacity:1" fill="#4d2705" d="M 5.5,57.5 C 8.16667,57.5 10.8333,57.5 13.5,57.5C 12.6661,58.7479 11.3328,59.4146 9.5,59.5C 7.66723,59.4146 6.3339,58.7479 5.5,57.5 Z"/></g>
<g><path style="opacity:1" fill="#7b5d72" d="M 61.5,57.5 C 66.8333,57.5 72.1667,57.5 77.5,57.5C 80.1667,57.5 82.8333,57.5 85.5,57.5C 79.8893,59.139 73.8893,60.139 67.5,60.5C 61.3199,64.5315 57.9865,70.1981 57.5,77.5C 58.1791,81.5245 58.8458,85.5245 59.5,89.5C 60.8333,89.5 62.1667,89.5 63.5,89.5C 61.8986,92.5836 61.2319,95.917 61.5,99.5C 60.0821,101.308 58.0821,101.975 55.5,101.5C 55.5,98.8333 55.5,96.1667 55.5,93.5C 53.5,93.5 51.5,93.5 49.5,93.5C 49.5,92.1667 50.1667,91.5 51.5,91.5C 52.8333,91.5 54.1667,91.5 55.5,91.5C 55.5,90.1667 55.5,88.8333 55.5,87.5C 55.5,84.1667 55.5,80.8333 55.5,77.5C 55.5,70.8333 55.5,64.1667 55.5,57.5C 57.5,57.5 59.5,57.5 61.5,57.5 Z"/></g>
<g><path style="opacity:1" fill="#776c73" d="M 115.5,55.5 C 118.167,55.5 120.833,55.5 123.5,55.5C 123.5,72.1667 123.5,88.8333 123.5,105.5C 119.917,105.232 116.584,105.899 113.5,107.5C 113.757,104.068 114.424,100.734 115.5,97.5C 117.176,96.8166 117.843,95.4832 117.5,93.5C 116.527,91.5531 115.527,89.5531 114.5,87.5C 113.833,88.1667 113.167,88.8333 112.5,89.5C 110.5,86.8333 108.5,86.8333 106.5,89.5C 105.833,88.8333 105.167,88.1667 104.5,87.5C 102.423,88.9876 101.423,90.9876 101.5,93.5C 101.5,94.8333 101.5,96.1667 101.5,97.5C 101.5,99.5 101.5,101.5 101.5,103.5C 94.4163,102.874 87.7496,103.541 81.5,105.5C 80.8333,105.5 80.1667,105.5 79.5,105.5C 80.3766,102.248 81.0433,98.9146 81.5,95.5C 81.1667,93.5 80.8333,91.5 80.5,89.5C 78.5,86.8333 76.5,86.8333 74.5,89.5C 72.5,86.8333 70.5,86.8333 68.5,89.5C 66.5456,86.9528 64.8789,86.9528 63.5,89.5C 62.1667,89.5 60.8333,89.5 59.5,89.5C 58.8458,85.5245 58.1791,81.5245 57.5,77.5C 57.9865,70.1981 61.3199,64.5315 67.5,60.5C 73.8893,60.139 79.8893,59.139 85.5,57.5C 86.1667,57.5 86.8333,57.5 87.5,57.5C 96.1667,57.5 104.833,57.5 113.5,57.5C 114.562,61.5882 116.896,64.9215 120.5,67.5C 121.833,64.8333 121.833,62.1667 120.5,59.5C 118.511,58.3681 116.844,57.0348 115.5,55.5 Z"/></g>
<g><path style="opacity:1" fill="#b7b2b6" d="M 115.5,55.5 C 116.844,57.0348 118.511,58.3681 120.5,59.5C 121.833,62.1667 121.833,64.8333 120.5,67.5C 116.896,64.9215 114.562,61.5882 113.5,57.5C 104.833,57.5 96.1667,57.5 87.5,57.5C 96.4401,55.5278 105.773,54.8611 115.5,55.5 Z"/></g>
<g><path style="opacity:1" fill="#e37011" d="M 79.5,5.5 C 80.8333,5.5 82.1667,5.5 83.5,5.5C 84.8333,5.5 85.5,6.16667 85.5,7.5C 85.5,8.16667 85.5,8.83333 85.5,9.5C 84.2652,9.27858 83.2652,8.61191 82.5,7.5C 80.0275,9.29849 78.3608,11.6318 77.5,14.5C 79.3276,17.3128 80.661,20.3128 81.5,23.5C 82.8333,23.5 84.1667,23.5 85.5,23.5C 86.1667,24.8333 86.8333,26.1667 87.5,27.5C 87.5,30.1667 87.5,32.8333 87.5,35.5C 88.8333,35.5 90.1667,35.5 91.5,35.5C 91.8134,38.2469 91.48,40.9135 90.5,43.5C 88.4228,44.9876 87.4228,46.9876 87.5,49.5C 85.6988,53.9542 82.3655,55.9542 77.5,55.5C 72.1667,55.5 66.8333,55.5 61.5,55.5C 58.1594,54.9977 55.1594,53.6644 52.5,51.5C 48.9573,53.1083 45.9573,55.4416 43.5,58.5C 44.5,59.5 45.5,60.5 46.5,61.5C 47.8333,65.5 49.1667,69.5 50.5,73.5C 51.9166,75.2611 53.5833,76.5944 55.5,77.5C 55.5,80.8333 55.5,84.1667 55.5,87.5C 53.9201,85.2829 52.9201,82.6163 52.5,79.5C 50.8681,76.8545 48.5348,75.5211 45.5,75.5C 45.8134,72.7531 45.48,70.0865 44.5,67.5C 41.9906,68.9213 39.6572,70.5879 37.5,72.5C 40.5017,75.003 43.8351,77.003 47.5,78.5C 45.6684,79.0568 44.3351,80.0568 43.5,81.5C 40.1667,81.5 36.8333,81.5 33.5,81.5C 34.8439,83.0348 36.5106,84.3681 38.5,85.5C 39.4656,87.396 39.7989,89.396 39.5,91.5C 38.3065,91.9704 37.6399,92.9704 37.5,94.5C 37.8333,95.5 38.1667,96.5 38.5,97.5C 42.3359,99.5836 46.0026,101.917 49.5,104.5C 50.6888,105.429 52.0222,105.762 53.5,105.5C 56.4032,107.104 59.7366,108.104 63.5,108.5C 57.4495,109.221 51.4495,110.221 45.5,111.5C 43.3921,111.14 41.3921,110.473 39.5,109.5C 38.8333,109.833 38.1667,110.167 37.5,110.5C 38.6119,111.265 39.2786,112.265 39.5,113.5C 38.1667,113.5 36.8333,113.5 35.5,113.5C 35.2786,112.265 34.6119,111.265 33.5,110.5C 31.01,108.917 28.3433,107.917 25.5,107.5C 25.5,103.5 23.5,101.5 19.5,101.5C 18.7623,95.8621 18.0957,90.1955 17.5,84.5C 17.8333,81.5 18.1667,78.5 18.5,75.5C 20.8706,71.7457 22.8706,67.7457 24.5,63.5C 26.305,61.0971 28.6384,59.4305 31.5,58.5C 33.9202,56.4218 35.9202,54.0885 37.5,51.5C 41.5,50.1667 45.5,48.8333 49.5,47.5C 49.3691,48.3764 49.7025,49.0431 50.5,49.5C 52.0828,47.01 53.0828,44.3433 53.5,41.5C 48.6771,42.2265 45.6771,40.2265 44.5,35.5C 43.065,37.4011 41.3983,37.7345 39.5,36.5C 41.1667,34.8333 42.8333,33.1667 44.5,31.5C 45.8415,33.0049 47.5082,33.6715 49.5,33.5C 49.5,37.5 51.5,39.5 55.5,39.5C 54.1932,36.8864 52.8599,34.2198 51.5,31.5C 51.9186,30.3279 52.5853,29.3279 53.5,28.5C 51.6684,27.9432 50.3351,26.9432 49.5,25.5C 54.1667,24.8333 56.8333,22.1667 57.5,17.5C 58.7348,17.2786 59.7348,16.6119 60.5,15.5C 62.0583,20.6945 63.0583,20.6945 63.5,15.5C 67.9448,14.856 71.6115,16.1893 74.5,19.5C 75.8676,16.9323 75.5342,14.5989 73.5,12.5C 74.6119,11.7348 75.2786,10.7348 75.5,9.5C 77.5,8.83333 78.8333,7.5 79.5,5.5 Z"/></g>
<g><path style="opacity:1" fill="#e1dbdc" d="M 73.5,31.5 C 70.8333,32.1667 70.8333,32.8333 73.5,33.5C 72.6693,38.3955 74.6693,41.0621 79.5,41.5C 81.3839,41.2837 83.0506,40.617 84.5,39.5C 85.8333,41.5 85.8333,43.5 84.5,45.5C 75.1667,56.1667 65.8333,56.1667 56.5,45.5C 55.5344,43.604 55.2011,41.604 55.5,39.5C 58.6366,41.4462 61.97,41.7795 65.5,40.5C 66.8333,38.5 68.1667,36.5 69.5,34.5C 69.0431,33.7025 68.3764,33.3691 67.5,33.5C 67.5,32.8333 67.5,32.1667 67.5,31.5C 67.5,30.1667 67.5,28.8333 67.5,27.5C 68.7348,27.7214 69.7348,28.3881 70.5,29.5C 71.1667,27.5 71.8333,25.5 72.5,23.5C 73.48,26.0865 73.8134,28.7531 73.5,31.5 Z"/></g>
<g><path style="opacity:1" fill="#130109" d="M 71.5,47.5 C 72.8333,47.5 74.1667,47.5 75.5,47.5C 75.38,48.5862 74.7133,49.2528 73.5,49.5C 72.2867,49.2528 71.62,48.5862 71.5,47.5 Z"/></g>
<g><path style="opacity:1" fill="#130109" d="M 69.5,47.5 C 69.38,48.5862 68.7133,49.2528 67.5,49.5C 66.8333,49.1667 66.1667,48.8333 65.5,48.5C 66.6888,47.5713 68.0222,47.238 69.5,47.5 Z"/></g>
<g><path style="opacity:1" fill="#130109" d="M 75.5,47.5 C 75.6395,45.663 76.3061,45.3296 77.5,46.5C 77.0431,47.2975 76.3764,47.6309 75.5,47.5 Z"/></g>
<g><path style="opacity:1" fill="#130109" d="M 71.5,47.5 C 70.8333,47.5 70.1667,47.5 69.5,47.5C 70.1667,42.1667 70.8333,42.1667 71.5,47.5 Z"/></g>
<g><path style="opacity:1" fill="#130109" d="M 77.5,31.5 C 78.8333,32.1667 80.1667,32.8333 81.5,33.5C 80.5539,36.3126 78.5539,37.646 75.5,37.5C 75.5,36.1667 75.5,34.8333 75.5,33.5C 76.8333,33.5 77.5,32.8333 77.5,31.5 Z"/></g>
<g><path style="opacity:1" fill="#adf144" d="M 73.5,31.5 C 74.1667,31.5 74.8333,31.5 75.5,31.5C 76.1667,31.5 76.8333,31.5 77.5,31.5C 77.5,32.8333 76.8333,33.5 75.5,33.5C 74.8333,33.5 74.1667,33.5 73.5,33.5C 73.5,32.8333 73.5,32.1667 73.5,31.5 Z"/></g>
<g><path style="opacity:1" fill="#f47404" d="M 73.5,31.5 C 73.5,32.1667 73.5,32.8333 73.5,33.5C 70.8333,32.8333 70.8333,32.1667 73.5,31.5 Z"/></g>
<g><path style="opacity:1" fill="#130109" d="M 61.5,31.5 C 62.8333,32.1667 64.1667,32.8333 65.5,33.5C 64.8779,35.4557 63.5446,36.789 61.5,37.5C 60.2867,37.2528 59.62,36.5862 59.5,35.5C 60.1667,34.1667 60.8333,32.8333 61.5,31.5 Z"/></g>
<g><path style="opacity:1" fill="#92e610" d="M 59.5,29.5 C 59.5,30.8333 60.1667,31.5 61.5,31.5C 60.8333,32.8333 60.1667,34.1667 59.5,35.5C 54.1667,33.5 54.1667,31.5 59.5,29.5 Z"/></g>
<g><path style="opacity:1" fill="#67ef1b" d="M 77.5,27.5 C 78.8333,27.5 80.1667,27.5 81.5,27.5C 81.3285,29.4918 81.9951,31.1585 83.5,32.5C 83.0431,33.2975 82.3764,33.6309 81.5,33.5C 80.1667,32.8333 78.8333,32.1667 77.5,31.5C 77.5,30.1667 77.5,28.8333 77.5,27.5 Z"/></g>
<g><path style="opacity:1" fill="#f6f2ed" d="M 77.5,27.5 C 77.5,28.8333 77.5,30.1667 77.5,31.5C 76.8333,31.5 76.1667,31.5 75.5,31.5C 75.1568,29.5168 75.8235,28.1834 77.5,27.5 Z"/></g>
<g><path style="opacity:1" fill="#f47404" d="M 65.5,27.5 C 66.1667,27.5 66.8333,27.5 67.5,27.5C 67.5,28.8333 67.5,30.1667 67.5,31.5C 65.8235,30.8166 65.1568,29.4832 65.5,27.5 Z"/></g>
<g><path style="opacity:1" fill="#46f010" d="M 63.5,27.5 C 64.1667,27.5 64.8333,27.5 65.5,27.5C 65.1568,29.4832 65.8235,30.8166 67.5,31.5C 67.5,32.1667 67.5,32.8333 67.5,33.5C 66.8333,33.5 66.1667,33.5 65.5,33.5C 64.1667,32.8333 62.8333,32.1667 61.5,31.5C 62.1667,30.1667 62.8333,28.8333 63.5,27.5 Z"/></g>
<g><path style="opacity:1" fill="#f6f2ed" d="M 63.5,27.5 C 62.8333,28.8333 62.1667,30.1667 61.5,31.5C 60.1667,31.5 59.5,30.8333 59.5,29.5C 60.1834,27.8235 61.5168,27.1568 63.5,27.5 Z"/></g>
<g><path style="opacity:1" fill="#f6f2ed" d="M 67.5,27.5 C 66.8333,27.5 66.1667,27.5 65.5,27.5C 66.1667,24.8333 66.8333,24.8333 67.5,27.5 Z"/></g>
<g><path style="opacity:1" fill="#68f12b" d="M 89.5,73.5 C 89.5,72.8333 89.5,72.1667 89.5,71.5C 90.1667,66.1667 90.8333,66.1667 91.5,71.5C 93.5,71.5 95.5,71.5 97.5,71.5C 97.238,70.0222 97.5713,68.6888 98.5,67.5C 99.8333,69.5 99.8333,71.5 98.5,73.5C 97.1667,74.8333 95.8333,76.1667 94.5,77.5C 93.0834,75.7389 91.4167,74.4056 89.5,73.5 Z"/></g>
<g><path style="opacity:1" fill="#c13d7f" d="M 89.5,71.5 C 89.5,72.1667 89.5,72.8333 89.5,73.5C 89.131,78.8462 86.7977,80.1795 82.5,77.5C 81.1667,75.5 81.1667,73.5 82.5,71.5C 83.4287,72.6888 83.762,74.0222 83.5,75.5C 84.8333,75.5 86.1667,75.5 87.5,75.5C 87.1568,73.5168 87.8235,72.1834 89.5,71.5 Z"/></g>
<g><path style="opacity:1" fill="#4d2705" d="M 29.5,79.5 C 28.0222,79.762 26.6888,79.4287 25.5,78.5C 26.1667,78.1667 26.8333,77.8333 27.5,77.5C 28.7133,77.7472 29.38,78.4138 29.5,79.5 Z"/></g>
<g><path style="opacity:1" fill="#643208" d="M 55.5,87.5 C 55.5,88.8333 55.5,90.1667 55.5,91.5C 54.1667,91.5 52.8333,91.5 51.5,91.5C 52.9873,84.6009 50.3206,81.2675 43.5,81.5C 44.3351,80.0568 45.6684,79.0568 47.5,78.5C 43.8351,77.003 40.5017,75.003 37.5,72.5C 39.6572,70.5879 41.9906,68.9213 44.5,67.5C 45.48,70.0865 45.8134,72.7531 45.5,75.5C 48.5348,75.5211 50.8681,76.8545 52.5,79.5C 52.9201,82.6163 53.9201,85.2829 55.5,87.5 Z"/></g>
<g><path style="opacity:1" fill="#4d2705" d="M 29.5,79.5 C 31.4832,79.1568 32.8166,79.8235 33.5,81.5C 31.5168,81.8432 30.1834,81.1765 29.5,79.5 Z"/></g>
<g><path style="opacity:1" fill="#eae6e4" d="M 43.5,81.5 C 50.3206,81.2675 52.9873,84.6009 51.5,91.5C 50.1667,91.5 49.5,92.1667 49.5,93.5C 46.5825,93.6349 43.9158,92.9682 41.5,91.5C 41.2319,87.917 41.8986,84.5836 43.5,81.5 Z"/></g>
<g><path style="opacity:1" fill="#6a3911" d="M 33.5,81.5 C 36.8333,81.5 40.1667,81.5 43.5,81.5C 41.8986,84.5836 41.2319,87.917 41.5,91.5C 40.8333,91.5 40.1667,91.5 39.5,91.5C 39.7989,89.396 39.4656,87.396 38.5,85.5C 36.5106,84.3681 34.8439,83.0348 33.5,81.5 Z"/></g>
<g><path style="opacity:1" fill="#c44a85" d="M 101.5,93.5 C 102.833,93.5 104.167,93.5 105.5,93.5C 105.5,94.8333 105.5,96.1667 105.5,97.5C 104.167,97.5 102.833,97.5 101.5,97.5C 101.5,96.1667 101.5,94.8333 101.5,93.5 Z"/></g>
<g><path style="opacity:1" fill="#c44a85" d="M 117.5,93.5 C 117.843,95.4832 117.176,96.8166 115.5,97.5C 113.824,96.8166 113.157,95.4832 113.5,93.5C 114.833,93.5 116.167,93.5 117.5,93.5 Z"/></g>
<g><path style="opacity:1" fill="#443436" d="M 39.5,91.5 C 40.1667,91.5 40.8333,91.5 41.5,91.5C 43.9158,92.9682 46.5825,93.6349 49.5,93.5C 49.2786,94.7348 48.6119,95.7348 47.5,96.5C 49.8867,98.6893 52.5534,100.356 55.5,101.5C 58.0821,101.975 60.0821,101.308 61.5,99.5C 62.8333,99.5 64.1667,99.5 65.5,99.5C 66.576,102.734 67.2427,106.068 67.5,109.5C 65.8235,108.817 65.1568,107.483 65.5,105.5C 61.5,105.5 57.5,105.5 53.5,105.5C 52.0222,105.762 50.6888,105.429 49.5,104.5C 46.0026,101.917 42.3359,99.5836 38.5,97.5C 38.1667,96.5 37.8333,95.5 37.5,94.5C 37.6399,92.9704 38.3065,91.9704 39.5,91.5 Z"/></g>
<g><path style="opacity:1" fill="#f38226" d="M 79.5,105.5 C 77.8235,106.183 77.1568,107.517 77.5,109.5C 76.1667,109.5 74.8333,109.5 73.5,109.5C 73.5,110.833 73.5,112.167 73.5,113.5C 71.5,112.167 69.5,110.833 67.5,109.5C 67.2427,106.068 66.576,102.734 65.5,99.5C 64.1667,99.5 62.8333,99.5 61.5,99.5C 61.2319,95.917 61.8986,92.5836 63.5,89.5C 64.8789,86.9528 66.5456,86.9528 68.5,89.5C 70.5,86.8333 72.5,86.8333 74.5,89.5C 76.5,86.8333 78.5,86.8333 80.5,89.5C 80.8333,91.5 81.1667,93.5 81.5,95.5C 81.0433,98.9146 80.3766,102.248 79.5,105.5 Z"/></g>
<g><path style="opacity:1" fill="#c23e80" d="M 75.5,93.5 C 76.8333,93.5 78.1667,93.5 79.5,93.5C 79.5,94.8333 79.5,96.1667 79.5,97.5C 78.1667,97.5 76.8333,97.5 75.5,97.5C 75.5,96.1667 75.5,94.8333 75.5,93.5 Z"/></g>
<g><path style="opacity:1" fill="#c23e80" d="M 69.5,93.5 C 70.8333,93.5 72.1667,93.5 73.5,93.5C 73.5,94.8333 73.5,96.1667 73.5,97.5C 72.1667,97.5 70.8333,97.5 69.5,97.5C 69.5,96.1667 69.5,94.8333 69.5,93.5 Z"/></g>
<g><path style="opacity:1" fill="#c23e80" d="M 63.5,93.5 C 64.8333,93.5 66.1667,93.5 67.5,93.5C 67.5,94.8333 67.5,96.1667 67.5,97.5C 66.1667,97.5 64.8333,97.5 63.5,97.5C 63.5,96.1667 63.5,94.8333 63.5,93.5 Z"/></g>
<g><path style="opacity:1" fill="#f0832b" d="M 117.5,93.5 C 116.167,93.5 114.833,93.5 113.5,93.5C 113.157,95.4832 113.824,96.8166 115.5,97.5C 114.424,100.734 113.757,104.068 113.5,107.5C 111.718,108.72 109.718,109.386 107.5,109.5C 107.614,111.718 108.28,113.718 109.5,115.5C 105.932,114.715 102.599,113.382 99.5,111.5C 99.6138,109.282 100.28,107.282 101.5,105.5C 101.5,104.833 101.5,104.167 101.5,103.5C 101.5,101.5 101.5,99.5 101.5,97.5C 102.833,97.5 104.167,97.5 105.5,97.5C 105.5,96.1667 105.5,94.8333 105.5,93.5C 104.167,93.5 102.833,93.5 101.5,93.5C 101.423,90.9876 102.423,88.9876 104.5,87.5C 105.167,88.1667 105.833,88.8333 106.5,89.5C 108.5,86.8333 110.5,86.8333 112.5,89.5C 113.167,88.8333 113.833,88.1667 114.5,87.5C 115.527,89.5531 116.527,91.5531 117.5,93.5 Z"/></g>
<g><path style="opacity:1" fill="#c44a85" d="M 107.5,93.5 C 108.833,93.5 110.167,93.5 111.5,93.5C 111.5,94.8333 111.5,96.1667 111.5,97.5C 110.167,97.5 108.833,97.5 107.5,97.5C 107.5,96.1667 107.5,94.8333 107.5,93.5 Z"/></g>
<g><path style="opacity:1" fill="#130109" d="M 101.5,103.5 C 101.5,104.167 101.5,104.833 101.5,105.5C 96.1667,105.5 90.8333,105.5 85.5,105.5C 84.1667,105.5 82.8333,105.5 81.5,105.5C 87.7496,103.541 94.4163,102.874 101.5,103.5 Z"/></g>
<g><path style="opacity:1" fill="#bf5c07" d="M 53.5,105.5 C 57.5,105.5 61.5,105.5 65.5,105.5C 65.1568,107.483 65.8235,108.817 67.5,109.5C 67.5,110.833 67.5,112.167 67.5,113.5C 58.1667,113.5 48.8333,113.5 39.5,113.5C 39.2786,112.265 38.6119,111.265 37.5,110.5C 38.1667,110.167 38.8333,109.833 39.5,109.5C 41.3921,110.473 43.3921,111.14 45.5,111.5C 51.4495,110.221 57.4495,109.221 63.5,108.5C 59.7366,108.104 56.4032,107.104 53.5,105.5 Z"/></g>
<g><path style="opacity:1" fill="#4d2705" d="M 79.5,105.5 C 80.069,109.329 79.4023,112.663 77.5,115.5C 77.5,114.833 77.5,114.167 77.5,113.5C 77.5,112.167 77.5,110.833 77.5,109.5C 77.1568,107.517 77.8235,106.183 79.5,105.5 Z"/></g>
<g><path style="opacity:1" fill="#8d4509" d="M 85.5,105.5 C 90.8333,105.5 96.1667,105.5 101.5,105.5C 100.28,107.282 99.6138,109.282 99.5,111.5C 95.3714,111.126 91.3714,110.126 87.5,108.5C 86.3881,107.735 85.7214,106.735 85.5,105.5 Z"/></g>
<g><path style="opacity:1" fill="#8b4409" d="M 19.5,101.5 C 23.5,101.5 25.5,103.5 25.5,107.5C 28.3433,107.917 31.01,108.917 33.5,110.5C 34.6119,111.265 35.2786,112.265 35.5,113.5C 34.1667,113.5 32.8333,113.5 31.5,113.5C 25.5,111.5 21.5,107.5 19.5,101.5 Z"/></g>
<g><path style="opacity:1" fill="#512806" d="M 67.5,109.5 C 69.5,110.833 71.5,112.167 73.5,113.5C 74.1834,115.176 75.5168,115.843 77.5,115.5C 77.0296,116.693 76.0296,117.36 74.5,117.5C 59.8808,116.264 45.5475,114.931 31.5,113.5C 32.8333,113.5 34.1667,113.5 35.5,113.5C 36.8333,113.5 38.1667,113.5 39.5,113.5C 48.8333,113.5 58.1667,113.5 67.5,113.5C 67.5,112.167 67.5,110.833 67.5,109.5 Z"/></g>
<g><path style="opacity:1" fill="#d55695" d="M 77.5,109.5 C 77.5,110.833 77.5,112.167 77.5,113.5C 76.1667,113.5 74.8333,113.5 73.5,113.5C 73.5,112.167 73.5,110.833 73.5,109.5C 74.8333,109.5 76.1667,109.5 77.5,109.5 Z"/></g>
<g><path style="opacity:1" fill="#a25464" d="M 113.5,107.5 C 114.042,111.259 112.708,113.926 109.5,115.5C 108.28,113.718 107.614,111.718 107.5,109.5C 109.718,109.386 111.718,108.72 113.5,107.5 Z"/></g>
<g><path style="opacity:1" fill="#fe9b44" d="M 73.5,113.5 C 74.8333,113.5 76.1667,113.5 77.5,113.5C 77.5,114.167 77.5,114.833 77.5,115.5C 75.5168,115.843 74.1834,115.176 73.5,113.5 Z"/></g>
</svg>
